:FULLY-SPECIFIED
:FORCE-ALL-JOINTS-BE-3DOF
:DEGREES
1325
root -1.5382 14.8501 6.94658 352.897 26.1362 363.224
lfemur 1.95645 3.76007 -17.2656
ltibia 54.2214 0 0
lfoot -28.6675 26.4394 0
ltoes -17.0304 0 0
rfemur -52.2145 -7.76595 3.25572
rtibia 45.742 0 0
rfoot 18.5401 8.7517 0
rtoes 5.45077 0 0
lowerback 13.1976 0.53994 -11.1447
upperback -1.74232 -0.977396 0.570159
thorax -9.26187 0.132653 7.11081
lowerneck -4.31371 -9.37072 -11.2173
upperneck 15.005 -12.8139 7.87456
head 6.53562 -6.36372 3.38225
lclavicle 6.72046e-14 -1.79192e-16 0
lhumerus -39.7569 -45.2382 112.891
lradius 112.203 0 0
lwrist 40.7768 0 0
lhand -12.553 47.0429 0
lfingers 7.12502 0 0
lthumb 13.5251 -283.387 0
rclavicle 6.72046e-14 -1.79192e-16 0
rhumerus 38.7147 15.8491 -53.1327
rradius 99.5815 0 0
rwrist -18.1892 0 0
rhand -18.3755 -30.1352 0
rfingers 7.12502 0 0
rthumb 7.90273 -59.4828 0
1326
root -1.554 14.8248 7.11666 353.22 26.4096 363.362
lfemur 2.63392 3.50337 -17.0317
ltibia 53.5664 0 0
lfoot -28.4977 26.7483 0
ltoes -17.2139 0 0
rfemur -52.558 -8.14679 3.30659
rtibia 46.4211 0 0
rfoot 17.86 8.78262 0
rtoes 5.14165 0 0
lowerback 13.1578 0.582916 -11.1743
upperback -1.78097 -0.926562 0.50987
thorax -9.29229 0.159801 7.05028
lowerneck -4.11327 -9.48459 -11.2494
upperneck 14.7027 -12.9779 7.96429
head 6.43321 -6.44747 3.41501
lclavicle 6.70688e-14 -6.12466e-16 0
lhumerus -41.2648 -44.2454 112.699
lradius 111.895 0 0
lwrist 41.3579 0 0
lhand -12.4583 46.8985 0
lfingers 7.12502 0 0
lthumb 13.6164 -283.537 0
rclavicle 6.70688e-14 -6.12466e-16 0
rhumerus 39.7463 14.7108 -52.0149
rradius 98.9723 0 0
rwrist -16.3761 0 0
rhand -19.3301 -30.2316 0
rfingers 7.12502 0 0
rthumb 6.98172 -59.5794 0
1327
root -1.56981 14.7994 7.28675 353.562 26.6705 363.497
lfemur 3.29437 3.24936 -16.796
ltibia 52.8865 0 0
lfoot -28.3013 27.0602 0
ltoes -17.3781 0 0
rfemur -52.8748 -8.53648 3.37547
rtibia 47.1188 0 0
rfoot 17.1423 8.79501 0
rtoes 4.79959 0 0
lowerback 13.1116 0.628746 -11.1961
upperback -1.8227 -0.870768 0.449226
thorax -9.3227 0.189018 6.98405
lowerneck -3.90784 -9.59772 -11.2791
upperneck 14.3881 -13.1412 8.05601
head 6.32625 -6.53083 3.44841
lclavicle 6.6872e-14 -1.05328e-15 0
lhumerus -42.7599 -43.2145 112.475
lradius 111.568 0 0
lwrist 41.9624 0 0
lhand -12.3694 46.7488 0
lfingers 7.12502 0 0
lthumb 13.7021 -283.692 0
rclavicle 6.6872e-14 -1.05328e-15 0
rhumerus 40.7703 13.5556 -50.889
rradius 98.339 0 0
rwrist -14.5266 0 0
rhand -20.3041 -30.3299 0
rfingers 7.12502 0 0
rthumb 6.04194 -59.6774 0
1328
root -1.58561 14.7741 7.45683 353.92 26.9193 363.627
lfemur 3.93837 2.99827 -16.5587
ltibia 52.1839 0 0
lfoot -28.0802 27.3745 0
ltoes -17.5245 0 0
rfemur -53.1666 -8.93389 3.46114
rtibia 47.8332 0 0
rfoot 16.3904 8.79023 0
rtoes 4.4277 0 0
lowerback 13.0595 0.677172 -11.2104
upperback -1.86722 -0.810424 0.388338
thorax -9.35304 0.220121 6.91261
lowerneck -3.6981 -9.71001 -11.3065
upperneck 14.0627 -13.3037 8.14946
head 6.21522 -6.61373 3.48232
lclavicle 6.66174e-14 -1.50053e-15 0
lhumerus -44.2409 -42.1496 112.22
lradius 111.224 0 0
lwrist 42.5877 0 0
lhand -12.2859 46.5945 0
lfingers 7.12502 0 0
lthumb 13.7826 -283.852 0
rclavicle 6.66174e-14 -1.50053e-15 0
rhumerus 41.7858 12.3865 -49.7572
rradius 97.6843 0 0
rwrist -12.6457 0 0
rhand -21.2948 -30.4296 0
rfingers 7.12502 0 0
rthumb 5.08606 -59.7767 0
1329
root -1.60142 14.7487 7.62691 354.292 27.1563 363.753
lfemur 4.56649 2.75036 -16.3205
ltibia 51.4607 0 0
lfoot -27.8364 27.6905 0
ltoes -17.6545 0 0
rfemur -53.435 -9.33791 3.56237
rtibia 48.5621 0 0
rfoot 15.6078 8.76965 0
rtoes 4.02907 0 0
lowerback 13.002 0.727937 -11.2178
upperback -1.91426 -0.745938 0.327314
thorax -9.38324 0.252931 6.83643
lowerneck -3.48472 -9.82134 -11.3318
upperneck 13.7276 -13.465 8.24435
head 6.1006 -6.69604 3.51668
lclavicle 6.6308e-14 -1.95309e-15 0
lhumerus -45.7064 -41.0551 111.938
lradius 110.863 0 0
lwrist 43.2314 0 0
lhand -12.2076 46.4362 0
lfingers 7.12502 0 0
lthumb 13.858 -284.016 0
rclavicle 6.6308e-14 -1.95309e-15 0
rhumerus 42.7921 11.2063 -48.6218
rradius 97.0107 0 0
rwrist -10.739 0 0
rhand -22.2994 -30.5306 0
rfingers 7.12502 0 0
rthumb 4.11676 -59.8769 0
1330
root -1.61722 14.7233 7.797 354.678 27.382 363.876
lfemur 5.17929 2.50585 -16.0817
ltibia 50.719 0 0
lfoot -27.572 28.0075 0
ltoes -17.7694 0 0
rfemur -53.6817 -9.74744 3.67795
rtibia 49.3034 0 0
rfoot 14.7981 8.73464 0
rtoes 3.60681 0 0
lowerback 12.9397 0.780784 -11.2188
upperback -1.96354 -0.677721 0.266262
thorax -9.41326 0.287266 6.75596
lowerneck -3.26838 -9.93157 -11.355
upperneck 13.3842 -13.625 8.34043
head 5.98284 -6.77768 3.55136
lclavicle 6.59472e-14 -2.40984e-15 0
lhumerus -47.1552 -39.9351 111.631
lradius 110.488 0 0
lwrist 43.8909 0 0
lhand -12.134 46.2744 0
lfingers 7.12502 0 0
lthumb 13.9289 -284.183 0
rclavicle 6.59472e-14 -2.40984e-15 0
rhumerus 43.788 10.0177 -47.4852
rradius 96.3209 0 0
rwrist -8.81157 0 0
rhand -23.3152 -30.6324 0
rfingers 7.12502 0 0
rthumb 3.13672 -59.9778 0
1331
root -1.63302 14.698 7.96708 355.076 27.5966 363.996
lfemur 5.77733 2.26501 -15.8428
ltibia 49.9609 0 0
lfoot -27.2889 28.3249 0
ltoes -17.8706 0 0
rfemur -53.9084 -10.1614 3.80667
rtibia 50.0551 0 0
rfoot 13.9648 8.68657 0
rtoes 3.16402 0 0
lowerback 12.8729 0.835454 -11.2138
upperback -2.01479 -0.606183 0.205291
thorax -9.44302 0.322946 6.6717
lowerneck -3.04976 -10.0406 -11.3762
upperneck 13.0338 -13.7835 8.43741
head 5.86243 -6.85855 3.58629
lclavicle 6.55379e-14 -2.86967e-15 0
lhumerus -48.586 -38.7938 111.302
lradius 110.101 0 0
lwrist 44.5636 0 0
lhand -12.065 46.1098 0
lfingers 7.12502 0 0
lthumb 13.9954 -284.353 0
rclavicle 6.55379e-14 -2.86967e-15 0
rhumerus 44.7728 8.82377 -46.3496
rradius 95.6175 0 0
rwrist -6.8689 0 0
rhand -24.3393 -30.7348 0
rfingers 7.12502 0 0
rthumb 2.14863 -60.0791 0
1332
root -1.64883 14.6726 8.13716 355.483 27.8007 364.112
lfemur 6.36118 2.02805 -15.6043
ltibia 49.1886 0 0
lfoot -26.9892 28.642 0
ltoes -17.9595 0 0
rfemur -54.1167 -10.5785 3.9473
rtibia 50.8151 0 0
rfoot 13.1114 8.62681 0
rtoes 2.70381 0 0
lowerback 12.8022 0.891691 -11.2034
upperback -2.06771 -0.531734 0.14451
thorax -9.47247 0.359789 6.5841
lowerneck -2.82951 -10.1483 -11.3956
upperneck 12.6777 -13.9404 8.53504
head 5.73983 -6.93853 3.62136
lclavicle 6.50835e-14 -3.33146e-15 0
lhumerus -49.9975 -37.6354 110.954
lradius 109.704 0 0
lwrist 45.247 0 0
lhand -12.0001 45.9431 0
lfingers 7.12502 0 0
lthumb 14.0579 -284.525 0
rclavicle 6.50835e-14 -3.33146e-15 0
rhumerus 45.7455 7.6272 -45.2173
rradius 94.9031 0 0
rwrist -4.91624 0 0
rhand -25.3689 -30.8374 0
rfingers 7.12502 0 0
rthumb 1.15516 -60.1804 0
1333
root -1.66463 14.6473 8.30725 355.898 27.9945 364.224
lfemur 6.93141 1.79523 -15.3666
ltibia 48.4041 0 0
lfoot -26.6748 28.9581 0
ltoes -18.0375 0 0
rfemur -54.3083 -10.9979 4.09862
rtibia 51.5814 0 0
rfoot 12.2413 8.55672 0
rtoes 2.22927 0 0
lowerback 12.728 0.949236 -11.1881
upperback -2.12203 -0.454782 0.0840268
thorax -9.50155 0.397616 6.49365
lowerneck -2.60833 -10.2546 -11.4131
upperneck 12.3171 -14.0953 8.63303
head 5.61552 -7.01754 3.65649
lclavicle 6.4587e-14 -3.7941e-15 0
lhumerus -51.3885 -36.4642 110.588
lradius 109.298 0 0
lwrist 45.9387 0 0
lhand -11.939 45.7749 0
lfingers 7.12502 0 0
lthumb 14.1168 -284.698 0
rclavicle 6.4587e-14 -3.7941e-15 0
rhumerus 46.7051 6.43086 -44.0907
rradius 94.1803 0 0
rwrist -2.95893 0 0
rhand -26.4013 -30.94 0
rfingers 7.12502 0 0
rthumb 0.158985 -60.2815 0
